The Search for Santa Paws (2010) 1080P AC3-Eng+AC3-NL NLSub-DMT

Engels en Nederlands Gesproken.

Canada
Avontuur / Familie

geregisseerd door Robert Vince
met Richard Riehle, Kaitlyn Maher en de stem van Zachary Gordon

Als de Kerstman en zijn nieuwe beste vriend Paws, ontdekken dat de jongens en de meisjes 
van de wereld de geest van Kerstmis hebben verloren, ondernemen ze een trip naar New York. 
Maar nadat de Kerstman zijn geheugen verliest, is het aan Paws, het trouwe weesmeisje Quinn, 
haar nieuwe vriend Will en een wonderbaarlijke groep van magische, pratende honden, 
om de Kerstman uit de nood te helpen en de wereld te laten zien waar Kerstmis eigenlijk echt over gaat.
-------------------------------------------------------------------------------------------------------

PLOT

Magic dogs and an elf team up with two children to rescue Santa who has lost his memory. 
-------------------------------------------------------------------------------------------------------
 
http://www.youtube.com/watch?v=0GdbtAB4BIs

MM:    http://www.moviemeter.nl/film/71679

IMDB:    http://www.imdb.com/title/tt1544572/
-------------------------------------------------------------------------------------------------------

INFO

Source.........: 1080P BluRay 
FRAME RATE.....: 25.000Fps 
VIDEO CODEC....: X264
AUDIO CODEC....: AC3 English
AUDIO CODEC....: AC3 Dutch
RESOLUTION.....: 1920x1080
RUNTIME........: 97 MINS 
GENERE.........: Adventure | Family       
LANGUAGE.......: English & Dutch
SUBTITLES......: Dutch

Thanks To Bradje

Enjoy


General
Complete name                    : The.Search.for.Santa.Paws.2010.1080P.AC3.Eng.AC3.NL NLSub-DMT.mkv
Format                           : Matroska
File size                        : 6.62 GiB
Duration                         : 1h 32mn
Overall bit rate                 : 10.2 Mbps
Movie name                       : The Search for Santa Paws (2010) 1080P.X264.BRADJE
Encoded date                     : UTC 2010-11-21 17:26:22
Writing application              : mkvmerge v3.3.0 ('Language') built on Mar 24 2010 14:59:24
Writing library                  : libebml v0.8.0 + libmatroska v0.9.0

Video
ID                               : 1
Format                           : AVC
Format/Info                      : Advanced Video Codec
Format profile                   : High@L4.1
Format settings, CABAC           : Yes
Format settings, ReFrames        : 4 frames
Format settings, GOP             : M=4, N=16
Muxing mode                      : Container profile=Unknown@4.1
Codec ID                         : V_MPEG4/ISO/AVC
Duration                         : 1h 32mn
Bit rate                         : 9 091 Kbps
Width                            : 1 920 pixels
Height                           : 1 080 pixels
Display aspect ratio             : 16:9
Frame rate                       : 25.000 fps
Original frame rate              : 23.976 fps
Color space                      : YUV
Chroma subsampling               : 4:2:0
Bit depth                        : 8 bits
Scan type                        : Progressive
Bits/(Pixel*Frame)               : 0.175
Stream size                      : 5.99 GiB (91%)
Title                            : x264
Writing library                  : x264 core 107 r1745 4785e8e
Encoding settings                : cabac=1 / ref=4 / deblock=1:0:0 / analyse=0x3:0x133 / 
me=umh / subme=8 / psy=1 / psy_rd=1.00:0.00 / mixed_ref=1 / me_range=16 / chroma_me=1 / 
trellis=1 / 8x8dct=1 / cqm=0 / deadzone=21,11 / fast_pskip=0 / chroma_qp_offset=-2 / 
threads=6 / sliced_threads=0 / nr=0 / decimate=1 / interlaced=0 / constrained_intra=0 / 
bframes=3 / b_pyramid=2 / b_adapt=1 / b_bias=0 / direct=1 / weightb=1 / open_gop=0 / 
weightp=2 / keyint=240 / keyint_min=24 / scenecut=40 / intra_refresh=0 / rc_lookahead=40 / 
rc=2pass / mbtree=1 / bitrate=9091 / ratetol=1.0 / qcomp=0.60 / qpmin=10 / qpmax=51 / 
qpstep=4 / cplxblur=20.0 / qblur=0.5 / ip_ratio=1.40 / aq=1:1.00
Language                         : English

Audio #1
ID                               : 2
Format                           : AC-3
Format/Info                      : Audio Coding 3
Mode extension                   : CM (complete main)
Codec ID                         : A_AC3
Duration                         : 1h 32mn
Bit rate mode                    : Constant
Bit rate                         : 384 Kbps
Channel(s)                       : 6 channels
Channel positions                : Front: L C R, Side: L R, LFE
Sampling rate                    : 48.0 KHz
Bit depth                        : 16 bits
Stream size                      : 254 MiB (4%)
Title                            : AC3
Language                         : Dutch

Audio #2
ID                               : 3
Format                           : AC-3
Format/Info                      : Audio Coding 3
Mode extension                   : CM (complete main)
Codec ID                         : A_AC3
Duration                         : 1h 32mn
Bit rate mode                    : Constant
Bit rate                         : 384 Kbps
Channel(s)                       : 6 channels
Channel positions                : Front: L C R, Side: L R, LFE
Sampling rate                    : 48.0 KHz
Bit depth                        : 16 bits
Stream size                      : 254 MiB (4%)
Title                            : AC3
Language                         : English

Text
ID                               : 4
Format                           : UTF-8
Codec ID                         : S_TEXT/UTF8
Codec ID/Info                    : UTF-8 Plain Text
Title                            : Subtitles
Language                         : Dutch

Menu
00:00:00.000                     : en:Video Start
00:05:00.000                     : en:Chapter 1 - 00 Hr 05 Min
00:10:00.000                     : en:Chapter 2 - 00 Hr 10 Min
00:15:00.000                     : en:Chapter 3 - 00 Hr 15 Min
00:20:00.000                     : en:Chapter 4 - 00 Hr 20 Min
00:25:00.000                     : en:Chapter 5 - 00 Hr 25 Min
00:30:00.000                     : en:Chapter 6 - 00 Hr 30 Min
00:35:00.000                     : en:Chapter 7 - 00 Hr 35 Min
00:40:00.000                     : en:Chapter 8 - 00 Hr 40 Min
00:45:00.000                     : en:Chapter 9 - 00 Hr 45 Min
00:50:00.000                     : en:Chapter 10 - 00 Hr 50 Min
00:55:00.000                     : en:Chapter 11 - 00 Hr 55 Min
01:00:00.000                     : en:Chapter 12 - 01 Hr 00 Min
01:05:00.000                     : en:Chapter 13 - 01 Hr 05 Min
01:10:00.000                     : en:Chapter 14 - 01 Hr 10 Min
01:15:00.000                     : en:Chapter 15 - 01 Hr 15 Min
01:20:00.000                     : en:Chapter 16 - 01 Hr 20 Min
01:25:00.000                     : en:Chapter 17 - 01 Hr 25 Min
01:30:00.000                     : en:Chapter 18 - 01 Hr 30 Min
01:35:00.000                     : en:Chapter 19 - 01 Hr 35 Min

